<svg width="160" height="33" viewBox="0 0 160 33" fill="none" xmlns="http://www.w3.org/2000/svg">
<path d="M51.8261 21.8385C48.2461 21.8385 45.3449 19.0392 45.3449 15.5879C45.3449 12.1724 48.1866 9.39707 51.7146 9.34213C51.7518 9.33975 51.789 9.33975 51.8261 9.33975C51.8631 9.33975 51.9005 9.33975 51.9376 9.34213C55.4656 9.39707 58.3074 12.1724 58.3074 15.5879C58.3074 19.0392 55.4062 21.8385 51.8261 21.8385ZM58.3074 6.15898V8.53485C56.583 7.06118 54.3134 6.16551 51.8261 6.16551C46.4276 6.16551 42.0522 10.3859 42.0522 15.5879C42.0522 20.7923 46.4276 25.0127 51.8261 25.0127C54.3134 25.0127 56.583 24.117 58.3074 22.6434V25.0043H61.6124V6.15898H58.3074Z" fill="#222222"/>
<path d="M51.9375 9.34191C51.9004 9.33953 51.863 9.33953 51.8261 9.33953C51.7889 9.33953 51.7518 9.33953 51.7146 9.34191C51.7518 9.34414 51.7889 9.34668 51.8261 9.34668C51.863 9.34668 51.9004 9.34414 51.9375 9.34191Z" fill="#222222"/>
<path d="M79.5596 15.5379L89.3434 6.10612H84.6683L76.5098 13.9712H74.8399V0.00142097H71.5349V25.0054H74.8399V17.1574H76.4751L77.1763 17.8356L84.5568 24.9508H89.232L79.5151 15.5834L79.5596 15.5379Z" fill="#222222"/>
<path d="M140.501 15.5913V25.0042H137.196V14.0436C137.196 11.4474 135.013 9.34074 132.317 9.34074C129.624 9.34074 127.439 11.4474 127.439 14.0436V15.5913V25.0042H124.134V15.5913L124.144 14.1582C124.147 14.12 124.147 14.0818 124.147 14.0436C124.147 14.0054 124.147 13.9672 124.144 13.9289C124.144 13.8621 124.142 13.7976 124.134 13.7331C123.971 11.2825 121.852 9.34074 119.268 9.34074C116.575 9.34074 114.39 11.4474 114.39 14.0436V25.0042H111.085V6.15934H114.39V7.71183C115.75 6.73496 117.437 6.15934 119.263 6.15934H119.271C121.094 6.16173 122.774 6.73735 124.134 7.70944C124.761 8.15847 125.318 8.69109 125.792 9.29298C126.26 8.69348 126.817 8.16324 127.439 7.7166C128.802 6.73734 130.489 6.15934 132.317 6.15934C134.146 6.15934 135.833 6.73734 137.196 7.7166C139.198 9.15206 140.496 11.4521 140.496 14.0436L140.501 15.5913Z" fill="#222222"/>
<path d="M68.2286 4.00543e-05H64.9236V25.0042H68.2286V4.00543e-05Z" fill="#222222"/>
<path d="M91.7175 13.9805C92.4434 11.3439 94.916 9.39234 97.8692 9.34473C97.9063 9.34234 97.9435 9.34235 97.9807 9.34235C98.0178 9.34235 98.055 9.34234 98.0922 9.34473C101.046 9.39234 103.52 11.3439 104.246 13.9805H91.7175ZM107.618 17.1669C107.707 16.6534 107.755 16.1279 107.755 15.5905C107.755 15.0412 107.705 14.5038 107.611 13.9805C106.821 9.5452 102.809 6.16795 97.9807 6.16795C92.5846 6.16795 88.2068 10.3885 88.2068 15.5905C88.2068 20.7949 92.5846 25.0151 97.9807 25.0151C101.578 25.0151 104.72 23.1426 106.417 20.3529H102.175C101.046 21.2822 99.5787 21.8411 97.9807 21.8411C96.3802 21.8411 94.916 21.2822 93.7862 20.3529C92.7853 19.5362 92.047 18.428 91.7076 17.1669H107.618Z" fill="#222222"/>
<path d="M143.98 32.845V32.8474H143.889C143.918 32.8474 143.951 32.8474 143.98 32.845Z" fill="#222222"/>
<path d="M156.348 6.15934L152.521 13.9958L150.962 17.182L150.599 17.9294L150.232 17.182L148.676 13.9958L144.848 6.15934H141.194L145.021 13.9958L146.577 17.182L147.761 19.6039L148.136 20.3682L148.77 21.6699L147.142 25.0041L146.179 26.977C146.169 27.0055 146.154 27.0343 146.139 27.063C145.351 28.6083 143.703 29.6712 141.798 29.6712H140.501V32.7586C140.917 32.8214 141.342 32.8572 141.776 32.8572C142.326 32.8572 142.864 32.8048 143.381 32.7045C144.566 32.4776 145.661 32.0023 146.6 31.3407C146.654 31.3047 146.706 31.2666 146.758 31.226C147.358 30.7794 147.893 30.2563 148.344 29.6712C148.602 29.3368 148.831 28.9809 149.034 28.6083L149.3 28.0637C149.305 28.0566 149.307 28.0494 149.31 28.0422L150.595 25.4078L150.793 25.0041L152.424 21.6675L153.058 20.3682L154.614 17.182L156.173 13.9958L160 6.15934H156.348Z" fill="#222222"/>
<path d="M0 25.0054L12.2141 0.00141525H15.975L17.7688 3.67245L19.5947 7.41036L28.1891 25.0054H24.5353L17.7688 11.1507L15.9428 7.41274L14.0946 3.62946L3.65404 25.0054H0Z" fill="#58C1F5"/>
<path d="M7.33057 25.0055L19.5445 0.00158119H23.3054L25.0992 3.67261L26.9251 7.41052L35.5174 25.0011L31.8693 25.0127L25.0992 11.1508L23.2732 7.41291L21.425 3.62962L10.9844 25.0055H7.33057Z" fill="#58C1F5"/>
</svg>
